<?xml version="1.0" encoding="iso-8859-1"?>
<!-- Uploaded to: SVG Repo, www.svgrepo.com, Generator: SVG Repo Mixer Tools -->
<svg height="800px" width="800px" version="1.1" id="Layer_1" xmlns="http://www.w3.org/2000/svg" xmlns:xlink="http://www.w3.org/1999/xlink" 
	 viewBox="0 0 512 512" xml:space="preserve">
<path style="fill:#1895C2;" d="M413.013,60.496H98.987C44.405,60.496,0,104.907,0,159.494v257.877
	c0,18.853,15.28,34.133,34.133,34.133h443.733c18.853,0,34.133-15.28,34.133-34.133V159.494
	C512,104.907,467.595,60.496,413.013,60.496z"/>
<path style="fill:#FFF2B1;" d="M413.013,94.629H98.987c-35.76,0-64.853,29.093-64.853,64.865h22.05
	c24.781,0,45.227,20.082,45.227,44.863v18.716h308.827v-18.716c0-24.781,20.799-44.863,45.579-44.863h22.05
	C477.867,123.722,448.774,94.629,413.013,94.629z"/>
<path style="fill:#FFD608;" d="M410.237,222.379v58.709c0,24.781-20.082,44.874-44.863,44.874H146.625
	c-24.781,0-45.215-20.093-45.215-44.874v-58.015c44.214-29.878,97.53-47.332,154.92-47.332
	C313.287,175.741,366.217,192.922,410.237,222.379z"/>
</svg>